<svg width="25" height="25" viewBox="0 0 25 25" fill="none" xmlns="http://www.w3.org/2000/svg">
<g clip-path="url(#clip0_12_30)">
<path d="M24.2068 22.7938L18.2378 16.8248C19.8644 14.8354 20.6642 12.2969 20.4716 9.73432C20.2791 7.17179 19.109 4.78129 17.2034 3.05728C15.2977 1.33327 12.8024 0.407651 10.2334 0.471883C7.66447 0.536114 5.21849 1.58528 3.4014 3.40237C1.58431 5.21946 0.535138 7.66545 0.470906 10.2344C0.406674 12.8034 1.33229 15.2987 3.0563 17.2043C4.78031 19.11 7.17081 20.2801 9.73334 20.4726C12.2959 20.6651 14.8344 19.8654 16.8238 18.2388L22.7928 24.2078C22.9814 24.3899 23.234 24.4907 23.4962 24.4884C23.7584 24.4862 24.0092 24.381 24.1946 24.1956C24.38 24.0102 24.4852 23.7594 24.4875 23.4972C24.4897 23.235 24.3889 22.9824 24.2068 22.7938ZM10.4998 18.5008C8.91753 18.5008 7.37081 18.0316 6.05522 17.1525C4.73963 16.2735 3.71425 15.024 3.10875 13.5622C2.50324 12.1004 2.34482 10.4919 2.6535 8.94004C2.96218 7.38819 3.72411 5.96272 4.84293 4.8439C5.96175 3.72508 7.38721 2.96316 8.93906 2.65448C10.4909 2.34579 12.0994 2.50422 13.5613 3.10972C15.0231 3.71522 16.2725 4.7406 17.1515 6.0562C18.0306 7.37179 18.4998 8.91851 18.4998 10.5008C18.4974 12.6218 17.6538 14.6552 16.154 16.155C14.6542 17.6548 12.6208 18.4984 10.4998 18.5008Z" fill="#E0E0E0" fill-opacity="0.8"/>
</g>
<defs>
<clipPath id="clip0_12_30">
<rect width="24" height="24" fill="white" transform="translate(0.5 0.5)"/>
</clipPath>
</defs>
</svg>
